<svg width="40" height="17" viewBox="0 0 40 17" fill="none" xmlns="http://www.w3.org/2000/svg">
<path d="M9.90009 6.42002C9.64675 5.95335 9.28009 5.60002 8.80009 5.36002C8.33342 5.10669 7.78009 4.98002 7.14009 4.98002C6.03342 4.98002 5.14675 5.34669 4.48009 6.08002C3.81342 6.80002 3.48009 7.76669 3.48009 8.98002C3.48009 10.2734 3.82675 11.2867 4.52009 12.02C5.22675 12.74 6.19342 13.1 7.42009 13.1C8.26009 13.1 8.96675 12.8867 9.54009 12.46C10.1268 12.0334 10.5534 11.42 10.8201 10.62H6.48009V8.10002H13.9201V11.28C13.6668 12.1334 13.2334 12.9267 12.6201 13.66C12.0201 14.3934 11.2534 14.9867 10.3201 15.44C9.38676 15.8934 8.33342 16.12 7.16009 16.12C5.77342 16.12 4.53342 15.82 3.44009 15.22C2.36009 14.6067 1.51342 13.76 0.900088 12.68C0.300088 11.6 8.7887e-05 10.3667 8.7887e-05 8.98002C8.7887e-05 7.59335 0.300088 6.36002 0.900088 5.28002C1.51342 4.18669 2.36009 3.34002 3.44009 2.74002C4.52009 2.12669 5.75342 1.82002 7.14009 1.82002C8.82009 1.82002 10.2334 2.22669 11.3801 3.04002C12.5401 3.85335 13.3068 4.98002 13.6801 6.42002H9.90009ZM23.3345 10.26C23.3345 10.58 23.3145 10.9134 23.2745 11.26H15.5345C15.5878 11.9534 15.8078 12.4867 16.1945 12.86C16.5945 13.22 17.0811 13.4 17.6545 13.4C18.5078 13.4 19.1011 13.04 19.4345 12.32H23.0745C22.8878 13.0534 22.5478 13.7134 22.0545 14.3C21.5745 14.8867 20.9678 15.3467 20.2345 15.68C19.5011 16.0134 18.6811 16.18 17.7745 16.18C16.6811 16.18 15.7078 15.9467 14.8545 15.48C14.0011 15.0134 13.3345 14.3467 12.8545 13.48C12.3745 12.6134 12.1345 11.6 12.1345 10.44C12.1345 9.28002 12.3678 8.26669 12.8345 7.40002C13.3145 6.53335 13.9811 5.86669 14.8345 5.40002C15.6878 4.93335 16.6678 4.70002 17.7745 4.70002C18.8545 4.70002 19.8145 4.92669 20.6545 5.38002C21.4945 5.83335 22.1478 6.48002 22.6145 7.32002C23.0945 8.16002 23.3345 9.14002 23.3345 10.26ZM19.8345 9.36002C19.8345 8.77335 19.6345 8.30669 19.2345 7.96002C18.8345 7.61335 18.3345 7.44002 17.7345 7.44002C17.1611 7.44002 16.6745 7.60669 16.2745 7.94002C15.8878 8.27335 15.6478 8.74669 15.5545 9.36002H19.8345ZM26.6787 16.18C25.7053 16.18 24.8387 16.0134 24.0787 15.68C23.3187 15.3467 22.7187 14.8934 22.2787 14.32C21.8387 13.7334 21.592 13.08 21.5387 12.36H24.9187C24.9587 12.7467 25.1387 13.06 25.4587 13.3C25.7787 13.54 26.172 13.66 26.6387 13.66C27.0653 13.66 27.392 13.58 27.6187 13.42C27.8587 13.2467 27.9787 13.0267 27.9787 12.76C27.9787 12.44 27.812 12.2067 27.4787 12.06C27.1453 11.9 26.6053 11.7267 25.8587 11.54C25.0587 11.3534 24.392 11.16 23.8587 10.96C23.3253 10.7467 22.8653 10.42 22.4787 9.98002C22.092 9.52669 21.8987 8.92002 21.8987 8.16002C21.8987 7.52002 22.072 6.94002 22.4187 6.42002C22.7787 5.88669 23.2987 5.46669 23.9787 5.16002C24.672 4.85335 25.492 4.70002 26.4387 4.70002C27.8387 4.70002 28.9387 5.04669 29.7387 5.74002C30.552 6.43335 31.0187 7.35335 31.1387 8.50002H27.9787C27.9253 8.11335 27.752 7.80669 27.4587 7.58002C27.1787 7.35335 26.8053 7.24002 26.3387 7.24002C25.9387 7.24002 25.632 7.32002 25.4187 7.48002C25.2053 7.62669 25.0987 7.83335 25.0987 8.10002C25.0987 8.42002 25.2653 8.66002 25.5987 8.82002C25.9453 8.98002 26.4787 9.14002 27.1987 9.30002C28.0253 9.51335 28.6987 9.72669 29.2187 9.94002C29.7387 10.14 30.192 10.4734 30.5787 10.94C30.9787 11.3934 31.1853 12.0067 31.1987 12.78C31.1987 13.4334 31.012 14.02 30.6387 14.54C30.2787 15.0467 29.752 15.4467 29.0587 15.74C28.3787 16.0334 27.5853 16.18 26.6787 16.18ZM36.511 13.12V16.02H34.771C33.531 16.02 32.5644 15.72 31.871 15.12C31.1777 14.5067 30.831 13.5134 30.831 12.14V7.70002H29.471V4.86002H30.831V2.14002H34.251V4.86002H36.491V7.70002H34.251V12.18C34.251 12.5134 34.331 12.7534 34.491 12.9C34.651 13.0467 34.9177 13.12 35.291 13.12H36.511ZM37.136 3.70002C36.536 3.70002 36.0427 3.52669 35.656 3.18002C35.2827 2.82002 35.096 2.38002 35.096 1.86002C35.096 1.32669 35.2827 0.886686 35.656 0.540019C36.0427 0.180018 36.536 1.83582e-05 37.136 1.83582e-05C37.7227 1.83582e-05 38.2027 0.180018 38.576 0.540019C38.9627 0.886686 39.156 1.32669 39.156 1.86002C39.156 2.38002 38.9627 2.82002 38.576 3.18002C38.2027 3.52669 37.7227 3.70002 37.136 3.70002ZM38.836 4.86002V16.02H35.416V4.86002H38.836Z" fill="#374363"/>
</svg>
